# xmcd CD database file
# Copyright (C) 1993-1998 Ti Kan
#
# Track frame offsets:
#  225
#  10932
#  26480
#  40122
#  53617
#  66385
#  79410
#  91397
#  105480
#  120265
#
# Disc length: 1798 seconds
#
# Revision: 1
# Processed by: cddbd v1.4b41PL1 Copyright (c) Steve Scherf et al.
# Submitted via: CDWizzard Release:4.35
#
DISCID=7407030a
DTITLE=Hunter  Tommy - The Anniversary Sessions
DYEAR=1900
DGENRE=
TTITLE0=I Tripped Over Your Memory
TTITLE1=The Man Of '87
TTITLE2=Couldn't See The Gold
TTITLE3=You Can't Go Back
TTITLE4=I Seldom Give You A Second Thought
TTITLE5=The Party Of The First Part
TTITLE6=Name The Place And Time
TTITLE7=Nickels And Dimes And Love
TTITLE8=Let's Pit Love Back To Work
TTITLE9=Love Comes To Those Who Wait
EXTD=
EXTT0=
EXTT1=
EXTT2=
EXTT3=
EXTT4=
EXTT5=
EXTT6=
EXTT7=
EXTT8=
EXTT9=
PLAYORDER=
